HIERARCHY
ROOT Hips
{
	OFFSET -3.958830 18.904000 13.208200
	CHANNELS 6 Xposition Yposition Zposition Zrotation Yrotation Xrotation 
	JOINT LHipJoint
	{
		OFFSET 0.000000 0.000000 0.000000
		CHANNELS 3 Zrotation Yrotation Xrotation
		JOINT LeftUpLeg
		{
			OFFSET 1.800000 -1.400000 0.085000
			CHANNELS 3 Zrotation Yrotation Xrotation
			JOINT LeftLeg
			{
				OFFSET 2.215000 -6.000000 0.000000
				CHANNELS 3 Zrotation Yrotation Xrotation
				JOINT LeftFoot
				{
					OFFSET 2.500000 -6.900000 0.000000
					CHANNELS 3 Zrotation Yrotation Xrotation
					JOINT LeftToeBase
					{
						OFFSET 0.200000 -0.500000 1.950000
						CHANNELS 3 Zrotation Yrotation Xrotation
						End Site
						{
							OFFSET 0.000000 0.000000 0.000000
						}
					}
				}
			}
		}
	}
	JOINT RHipJoint
	{
		OFFSET 0.000000 0.000000 0.000000
		CHANNELS 3 Zrotation Yrotation Xrotation
		JOINT RightUpLeg
		{
			OFFSET -1.800000 -1.400000 0.085000
			CHANNELS 3 Zrotation Yrotation Xrotation
			JOINT RightLeg
			{
				OFFSET -2.215000 -6.000000 0.000000
				CHANNELS 3 Zrotation Yrotation Xrotation
				JOINT RightFoot
				{
					OFFSET -2.500000 -6.900000 0.000000
					CHANNELS 3 Zrotation Yrotation Xrotation
					JOINT RightToeBase
					{
						OFFSET -0.200000 -0.500000 1.950000
						CHANNELS 3 Zrotation Yrotation Xrotation
						End Site
						{
							OFFSET 0.000000 0.000000 0.000000
						}
					}
				}
			}
		}
	}
	JOINT LowerBack
	{
		OFFSET 0.000000 0.000000 0.000000
		CHANNELS 3 Zrotation Yrotation Xrotation
		JOINT Spine
		{
			OFFSET -0.087000 1.940000 -0.288900
			CHANNELS 3 Zrotation Yrotation Xrotation
			JOINT Spine1
			{
				OFFSET 0.000000 1.950000 0.060000
				CHANNELS 3 Zrotation Yrotation Xrotation
				JOINT Neck
				{
					OFFSET 0.000000 0.000000 0.000000
					CHANNELS 3 Zrotation Yrotation Xrotation
					JOINT Neck1
					{
						OFFSET 0.000000 1.600000 0.340000
						CHANNELS 3 Zrotation Yrotation Xrotation
						JOINT Head
						{
							OFFSET 0.000000 1.667000 -0.240000
							CHANNELS 3 Zrotation Yrotation Xrotation
							End Site
							{
								OFFSET 0.000000 0.000000 0.000000
							}
						}
					}
				}
				JOINT LeftShoulder
				{
					OFFSET 0.000000 0.000000 0.000000
					CHANNELS 3 Zrotation Yrotation Xrotation
					JOINT LeftArm
					{
						OFFSET 2.700000 1.550000 -0.730000
						CHANNELS 3 Zrotation Yrotation Xrotation
						JOINT LeftForeArm
						{
							OFFSET 5.450000 0.000000 0.000000
							CHANNELS 3 Zrotation Yrotation Xrotation
							JOINT LeftHand
							{
								OFFSET 3.450000 0.000000 0.000000
								CHANNELS 3 Zrotation Yrotation Xrotation
								JOINT LeftHandIndex1
								{
									OFFSET 0.750000 0.000000 0.000000
									CHANNELS 3 Zrotation Yrotation Xrotation
									End Site
									{
										OFFSET 0.000000 0.000000 0.000000
									}
								}
							}
						}
					}
				}
				JOINT RightShoulder
				{
					OFFSET 0.000000 0.000000 0.000000
					CHANNELS 3 Zrotation Yrotation Xrotation
					JOINT RightArm
					{
						OFFSET -2.700000 1.550000 -0.730000
						CHANNELS 3 Zrotation Yrotation Xrotation
						JOINT RightForeArm
						{
							OFFSET -5.450000 0.000000 0.000000
							CHANNELS 3 Zrotation Yrotation Xrotation
							JOINT RightHand
							{
								OFFSET -3.450000 0.000000 0.000000
								CHANNELS 3 Zrotation Yrotation Xrotation
								JOINT RightHandIndex1
								{
									OFFSET -0.750000 0.000000 0.000000
									CHANNELS 3 Zrotation Yrotation Xrotation
									End Site
									{
										OFFSET 0.000000 0.000000 0.000000
									}
								}
							}
						}
					}
				}
			}
		}
	}
}
MOTION
Frames: 4
Frame Time: 0.016667
0.457730 17.332290 -1.466970 -4.106000 2.550043 1.974252 -15.226666 12.784804 3.035886 -1.165601 0.032127 -3.509721 -5.955895 3.832647 1.838262 -0.984197 5.145371 3.396785 0.097030 -0.436610 -0.152790 18.366198 -10.548307 3.002622 0.509989 1.544561 -13.248335 6.633671 -3.937219 2.724038 -0.291811 -3.508993 3.133682 0.115460 1.413140 0.993290 -3.684308 -1.143360 -7.315440 10.030318 -0.570661 6.868338 -2.275338 -0.618485 9.079291 3.167621 -0.730420 -9.731510 -1.256295 4.131384 24.812955 -5.853750 2.039500 -5.966380 -8.227559 -10.503790 2.917738 -24.675435 -13.987522 0.856579 19.969584 -23.416526 -5.347431 -4.693373 2.617548 0.666110 0.908640 -0.172540 0.565890 2.464673 11.924275 6.376007 27.758792 14.898327 -2.883949 -21.211100 21.022438 -4.442498 1.542670 -1.505963 -0.605640 0.614940 0.433510 0.010960 
0.458740 17.332720 -1.467640 -4.110292 2.576272 1.972357 -15.227119 12.787321 3.036805 -1.152143 0.034365 -3.508633 -5.979696 3.837815 1.829367 -0.983354 5.148762 3.396572 0.095580 -0.439320 -0.152720 18.365659 -10.544888 3.003049 0.532919 1.561375 -13.330173 6.612618 -3.929111 2.733167 -0.289108 -3.499616 3.137527 0.113600 1.413870 0.992850 -3.683274 -1.151867 -7.317430 10.044937 -0.589245 6.882248 -2.276711 -0.631779 9.059727 3.161495 -0.738812 -9.730437 -1.276351 4.117979 24.824201 -5.871450 2.030940 -5.945070 -8.266483 -10.508254 2.920926 -24.628574 -13.965500 0.852074 19.963585 -23.389029 -5.340775 -4.693960 2.616063 0.666610 0.908910 -0.173390 0.565360 2.512256 11.924583 6.373131 27.679521 14.861742 -2.897556 -21.183254 21.049074 -4.432517 1.542531 -1.504022 -0.606420 0.615310 0.434070 0.010510 
0.460390 17.333460 -1.469170 -4.105119 2.636526 1.965514 -15.228812 12.790905 3.038875 -1.136946 0.039615 -3.503840 -6.026808 3.847323 1.810087 -0.981740 5.155113 3.395700 0.093230 -0.443830 -0.151230 18.363895 -10.538925 3.003276 0.563498 1.594325 -13.496848 6.582245 -3.915249 2.758717 -0.284392 -3.481555 3.143489 0.110570 1.414330 0.992530 -3.679174 -1.165094 -7.320485 10.031028 -0.619199 6.905826 -2.270008 -0.658616 9.040863 3.157878 -0.729929 -9.730371 -1.270163 4.086915 24.845439 -5.921420 2.032720 -5.914700 -8.318967 -10.530693 2.931673 -24.540736 -13.925916 0.838104 19.957695 -23.374418 -5.334568 -4.694897 2.613770 0.667350 0.909200 -0.174110 0.563870 2.568561 11.926956 6.365219 27.611671 14.847629 -2.904053 -21.195586 20.977991 -4.420076 1.544602 -1.502109 -0.607520 0.615520 0.434860 0.009260 
0.462660 17.334810 -1.471320 -4.090392 2.715076 1.946712 -15.231936 12.797470 3.043673 -1.127111 0.052423 -3.475419 -6.082929 3.856855 1.759611 -0.978028 5.161742 3.393199 0.090230 -0.447950 -0.150670 18.360686 -10.528484 3.003584 0.600282 1.638106 -13.728119 6.533021 -3.892685 2.780318 -0.278770 -3.454043 3.151303 0.106990 1.412210 0.991840 -3.671263 -1.190414 -7.327289 10.002573 -0.662072 6.961875 -2.260190 -0.693263 8.995252 3.147066 -0.726124 -9.727065 -1.281040 4.048276 24.901507 -5.955820 2.024760 -5.925770 -8.421504 -10.556742 2.942850 -24.376678 -13.862000 0.815703 19.890472 -23.379076 -5.312802 -4.693216 2.611346 0.669230 0.907050 -0.172630 0.561670 2.686671 11.929172 6.351730 27.460257 14.799763 -2.924975 -21.175541 20.930716 -4.393671 1.548202 -1.497481 -0.607710 0.614830 0.435750 0.008470 
